<?xml version="1.0" standalone="no"?><!-- Generator: Gravit.io --><svg xmlns="http://www.w3.org/2000/svg" xmlns:xlink="http://www.w3.org/1999/xlink" style="isolation:isolate" viewBox="0.453 0.25 500 507.033" width="500" height="507.033"><g id="g10414"><g id="g15415"><g id="g15417"><g id="g14600"><path d=" M 250.706 0.25 C 242.256 0.25 236.24 5.353 230.083 11.819 C 223.926 18.283 217.713 26.673 211.472 36.97 C 198.989 57.566 187.04 84.646 178.776 111.918 C 178.476 112.722 178.305 113.575 178.273 114.433 L 178.273 118.96 C 178.189 119.627 178.189 120.305 178.273 120.972 L 178.273 137.068 L 178.273 153.165 C 178.189 153.832 178.189 154.509 178.273 155.177 L 178.273 172.782 C 178.268 172.949 178.268 173.117 178.273 173.285 C 177.51 175.316 177.047 177.789 176.261 179.824 C 152.627 241.109 118.009 303.792 56.545 339.278 C 56.006 339.555 55.499 339.893 55.036 340.284 C 38.502 349.305 22.161 358.968 6.747 370.464 C 4.796 371.156 3.136 372.632 2.22 374.488 C 0.313 376.84 -0.096 380.309 1.214 383.039 L 1.214 426.801 C 1.215 431.015 5.048 434.849 9.262 434.849 L 162.177 434.849 L 162.177 442.898 C 162.177 455.136 171.436 465.062 183.303 466.539 L 194.872 501.749 C 195.912 504.911 199.09 507.241 202.418 507.283 L 298.995 507.283 C 302.323 507.241 305.5 504.911 306.54 501.749 L 318.612 466.539 C 330.252 464.851 339.236 454.972 339.236 442.898 L 339.236 434.849 L 492.15 434.849 C 496.364 434.849 500.198 431.015 500.199 426.801 L 500.199 380.524 C 500.537 379.212 500.537 377.813 500.199 376.5 C 500.055 376.154 499.886 375.817 499.696 375.494 C 499.701 375.327 499.701 375.159 499.696 374.991 C 499.552 374.645 499.383 374.308 499.193 373.985 C 498.888 373.621 498.551 373.284 498.187 372.979 C 498.027 372.804 497.858 372.636 497.684 372.476 C 497.689 372.309 497.689 372.141 497.684 371.973 C 497.36 371.782 497.024 371.614 496.678 371.47 C 496.568 371.388 496.285 371.552 496.175 371.47 C 496.015 371.295 495.846 371.127 495.671 370.967 C 479.471 358.864 462.335 348.687 444.868 339.278 C 382.936 303.521 348.294 240.035 324.649 178.315 C 324.133 176.967 323.622 175.635 323.14 174.291 L 323.14 154.674 C 323.186 154.172 323.186 153.666 323.14 153.165 L 323.14 137.068 L 323.14 120.972 C 323.186 120.471 323.186 119.965 323.14 119.463 L 323.14 114.433 C 323.107 113.575 322.937 112.722 322.637 111.918 C 314.372 84.646 302.424 57.566 289.941 36.97 C 283.699 26.673 277.487 18.283 271.33 11.819 C 265.173 5.353 259.156 0.25 250.706 0.25 Z  M 250.706 16.346 C 250.304 16.346 254.348 17.731 259.257 22.885 C 264.167 28.039 270.026 35.902 275.857 45.521 C 286.585 63.222 297.74 86.652 305.534 110.409 C 294.071 108.069 274.795 104.876 250.706 104.876 C 226.618 104.876 207.342 108.069 195.878 110.409 C 203.673 86.652 214.827 63.222 225.556 45.521 C 231.386 35.902 237.246 28.039 242.155 22.885 C 247.064 17.733 251.108 16.346 250.706 16.346 Z  M 250.706 120.972 C 278.585 120.972 301.815 126.786 307.043 128.014 L 307.043 137.068 L 307.043 144.11 C 299.249 142.304 279.172 137.068 250.706 137.068 C 222.24 137.068 202.164 142.304 194.369 144.11 L 194.369 137.068 L 194.369 128.014 C 199.597 126.791 222.827 120.972 250.706 120.972 Z  M 250.706 153.165 C 276.822 153.165 299.494 158.044 307.043 159.704 L 307.043 172.782 C 306.911 173.613 306.911 174.466 307.043 175.297 L 307.043 176.303 C 306.997 176.805 306.997 177.31 307.043 177.812 L 307.043 249.742 L 307.043 265.335 L 307.043 298.534 L 307.043 307.588 L 307.043 402.657 L 194.369 402.657 L 194.369 265.335 L 194.369 249.742 L 194.369 176.303 L 194.369 159.704 C 201.919 158.044 224.591 153.165 250.706 153.165 Z  M 178.273 216.544 L 178.273 249.742 L 178.273 265.335 L 178.273 296.522 C 156.844 300.34 135.573 305.895 114.894 313.121 C 142.321 284.814 162.67 250.899 178.273 216.544 Z  M 323.14 216.544 C 338.684 250.832 358.724 284.315 386.016 312.618 C 365.406 305.426 344.445 300.319 323.14 296.522 L 323.14 265.335 L 323.14 249.742 L 323.14 216.544 Z  M 210.466 298.031 C 206.007 298.031 202.418 301.621 202.418 306.079 C 202.418 310.538 206.007 314.127 210.466 314.127 L 290.947 314.127 C 295.406 314.127 298.995 310.538 298.995 306.079 C 298.995 301.621 295.406 298.031 290.947 298.031 L 210.466 298.031 Z  M 178.273 312.618 L 178.273 404.166 C 171.484 406.548 166.197 412.023 163.686 418.753 L 17.31 418.753 L 17.31 394.609 L 138.032 394.609 L 138.032 401.651 C 137.972 405.903 141.828 409.814 146.081 409.814 C 150.333 409.814 154.189 405.903 154.129 401.651 L 154.129 370.967 C 154.212 366.2 149.255 362.025 144.572 362.919 C 140.882 363.623 137.966 367.212 138.032 370.967 L 138.032 378.512 L 22.843 378.512 C 35.072 369.786 47.632 362.015 60.569 354.871 C 62.064 354.598 63.478 353.892 64.593 352.859 C 100.556 333.534 138.911 319.92 178.273 312.618 Z  M 323.14 313.121 C 362.563 320.417 400.826 333.576 436.82 352.859 C 438.069 353.98 439.677 354.694 441.347 354.871 C 454.073 361.901 466.519 369.936 478.569 378.512 L 363.38 378.512 L 363.38 370.967 C 363.464 366.2 358.506 362.025 353.823 362.919 C 350.134 363.623 347.218 367.212 347.284 370.967 L 347.284 401.651 C 347.224 405.903 351.08 409.814 355.332 409.814 C 359.584 409.814 363.44 405.903 363.38 401.651 L 363.38 394.609 L 484.102 394.609 L 484.102 418.753 L 337.727 418.753 C 335.216 412.023 329.929 406.548 323.14 404.166 L 323.14 313.121 Z  M 210.466 330.224 C 206.007 330.224 202.418 333.813 202.418 338.272 C 202.418 342.73 206.007 346.32 210.466 346.32 L 290.947 346.32 C 295.406 346.32 298.995 342.73 298.995 338.272 C 298.995 333.813 295.406 330.224 290.947 330.224 L 210.466 330.224 Z  M 210.466 362.416 C 206.007 362.416 202.418 366.006 202.418 370.464 C 202.418 374.923 206.007 378.512 210.466 378.512 L 290.947 378.512 C 295.406 378.512 298.995 374.923 298.995 370.464 C 298.995 366.006 295.406 362.416 290.947 362.416 L 210.466 362.416 Z  M 186.321 418.753 L 315.091 418.753 C 319.689 418.753 323.14 422.204 323.14 426.801 L 323.14 442.898 C 323.14 447.495 319.689 450.946 315.091 450.946 L 186.321 450.946 C 181.723 450.946 178.273 447.495 178.273 442.898 L 178.273 426.801 C 178.273 422.204 181.723 418.753 186.321 418.753 Z  M 199.902 467.042 L 301.007 467.042 L 293.462 491.186 L 207.951 491.186 L 199.902 467.042 Z " fill="rgb(0,0,0)"/></g></g></g></g></svg>