<svg width="32" height="32" xmlns="http://www.w3.org/2000/svg">

 <g>
  <title>background</title>
  <rect fill="#ffff00" id="canvas_background" height="512" width="512" y="-1" x="-1"/>
 </g>
 <g>
  <title>Layer 1</title>
  <path fill="#000000" id="path11556" d="m16,0.24988c-0.52496,0 -0.89874,0.31714 -1.28125,0.71875c-0.38251,0.40161 -0.76849,0.92285 -1.15625,1.5625c-0.77557,1.27966 -1.51782,2.96203 -2.031281,4.65625c-0.018649,0.05005 -0.029269,0.10303 -0.031249,0.15625l0,0.28125c-0.00516,0.0415 -0.00516,0.08362 0,0.125l0,1l0,1c-0.00516,0.0415 -0.00516,0.08362 0,0.125l0,1.09375c-0.00034,0.0105 -0.00034,0.02087 0,0.03125c-0.04739,0.12622 -0.0762,0.27991 -0.125,0.40625c-1.46829,3.80737 -3.61899,7.70166 -7.43747,9.90625c-0.03348,0.01721 -0.065,0.03821 -0.09375,0.0625c-1.02722,0.560541 -2.04236,1.160891 -3,1.875c-0.12122,0.042971 -0.22437,0.13476 -0.28125,0.25c-0.11853,0.14612 -0.14389,0.361691 -0.06253,0.53125l0,2.71875c0.00003,0.261841 0.23825,0.5 0.50003,0.5l9.49997,0l0,0.5c0,0.76037 0.575259,1.376949 1.31253,1.46875l0.718719,2.1875c0.064641,0.196409 0.261991,0.341181 0.468781,0.34375l6,0c0.20673,-0.002569 0.40411,-0.147341 0.468719,-0.34375l0.750031,-2.1875c0.723141,-0.10486 1.281219,-0.71863 1.281219,-1.46875l0,-0.5l9.500031,0c0.261749,0 0.499969,-0.238159 0.499969,-0.5l0,-2.875c0.021061,-0.081551 0.021061,-0.168459 0,-0.25c-0.008879,-0.02149 -0.019379,-0.04236 -0.03125,-0.0625c0.000341,-0.01038 0.000341,-0.02075 0,-0.03125c-0.008879,-0.02149 -0.019379,-0.04236 -0.03125,-0.0625c-0.01895,-0.022591 -0.03989,-0.043579 -0.0625,-0.0625c-0.009859,-0.01087 -0.020359,-0.02124 -0.03125,-0.03125c0.000341,-0.01038 0.000341,-0.02075 0,-0.03125c-0.02005,-0.011839 -0.04092,-0.022341 -0.0625,-0.03125c-0.006779,-0.005129 -0.02438,0.005119 -0.031219,0c-0.00989,-0.01087 -0.02039,-0.02124 -0.03125,-0.03125c-1.006531,-0.751829 -2.071039,-1.384159 -3.15625,-1.96875c-3.84753,-2.221319 -5.99976,-6.16553 -7.46875,-10c-0.03207,-0.08374 -0.06381,-0.16638 -0.093781,-0.25l0,-1.21875c0.002901,-0.03113 0.002901,-0.0625 0,-0.09375l0,-1l0,-1c0.002901,-0.03113 0.002901,-0.0625 0,-0.09375l0,-0.3125c-0.00198,-0.05322 -0.0126,-0.1062 -0.03125,-0.15625c-0.513399,-1.69422 -1.255709,-3.37659 -2.03125,-4.65625c-0.38773,-0.63965 -0.77371,-1.16089 -1.15625,-1.5625c-0.382479,-0.40161 -0.75629,-0.71875 -1.281219,-0.71875zm0,1c-0.02502,0 0.226231,0.08606 0.531219,0.40625c0.305021,0.32019 0.669041,0.80871 1.031281,1.40625c0.6665,1.09973 1.359501,2.55542 1.84375,4.03125c-0.712191,-0.14527 -1.909731,-0.34375 -3.40625,-0.34375c-1.49658,0 -2.69409,0.19848 -3.40625,0.34375c0.48422,-1.47583 1.17719,-2.93152 1.84372,-4.03125c0.362269,-0.59754 0.726259,-1.08606 1.03125,-1.40625c0.305019,-0.32007 0.556239,-0.40625 0.53128,-0.40625zm0,6.5c1.731991,0 3.1752,0.3612 3.499969,0.4375l0,0.5625l0,0.4375c-0.484219,-0.11218 -1.73148,-0.4375 -3.499969,-0.4375c-1.76849,0 -3.015779,0.32532 -3.50003,0.4375l0,-0.4375l0,-0.5625c0.3248,-0.07593 1.767969,-0.4375 3.50003,-0.4375zm0,2c1.62244,0 3.030939,0.303101 3.499969,0.40625l0,0.8125c-0.008209,0.05163 -0.008209,0.10461 0,0.15625l0,0.0625c-0.002899,0.03125 -0.002899,0.06262 0,0.09375l0,4.46875l0,0.96875l0,2.0625l0,0.5625l0,5.90625l-6.999999,0l0,-8.53125l0,-0.96875l0,-4.5625l0,-1.03125c0.46909,-0.103149 1.87756,-0.40625 3.50003,-0.40625zm-4.50003,3.9375l0,2.0625l0,0.96875l0,1.9375c-1.33127,0.237181 -2.652801,0.582399 -3.93747,1.03125c1.70392,-1.758669 2.96811,-3.8656 3.93747,-6zm8.999999,0c0.965761,2.13025 2.21072,4.210451 3.906281,5.96875c-1.28043,-0.446779 -2.58264,-0.76404 -3.906281,-1l0,-1.9375l0,-0.96875l0,-2.0625zm-6.999999,5.0625c-0.27701,0 -0.49997,0.223021 -0.49997,0.5c0,0.276979 0.22296,0.5 0.49997,0.5l4.999999,0c0.27701,0 0.500031,-0.223021 0.500031,-0.5c0,-0.276979 -0.223021,-0.5 -0.500031,-0.5l-4.999999,0zm-2,0.90625l0,5.6875c-0.421781,0.147949 -0.750211,0.488161 -0.90622,0.90625l-9.09378,0l0,-1.5l7.50003,0l0,0.4375c-0.00378,0.26416 0.23578,0.5072 0.49997,0.5072c0.26419,0 0.50375,-0.24304 0.50003,-0.5072l0,-1.90625c0.00519,-0.296141 -0.3028,-0.55554 -0.59375,-0.5c-0.22919,0.043699 -0.4104,0.26672 -0.40625,0.5l0,0.46875l-7.15625,0c0.7597,-0.54212 1.53998,-1.0249 2.34375,-1.46875c0.09286,-0.01697 0.18073,-0.060789 0.24997,-0.125c2.23422,-1.20056 4.6171,-2.046391 7.0625,-2.5zm8.999999,0.03125c2.449251,0.453251 4.82638,1.27087 7.062531,2.46875c0.077641,0.0697 0.177549,0.11401 0.28125,0.125c0.790649,0.436769 1.563841,0.935909 2.3125,1.46875l-7.15625,0l0,-0.46875c0.00519,-0.296141 -0.302799,-0.55554 -0.59375,-0.5c-0.229191,0.043699 -0.4104,0.26672 -0.40625,0.5l0,1.90625c-0.003719,0.26416 0.235781,0.5072 0.499969,0.5072c0.264191,0 0.50375,-0.24304 0.500031,-0.5072l0,-0.4375l7.499969,0l0,1.5l-9.093719,0c-0.15601,-0.418089 -0.48444,-0.758301 -0.906281,-0.90625l0,-5.65625zm-6.999999,1.0625c-0.27701,0 -0.49997,0.223021 -0.49997,0.5c0,0.276979 0.22296,0.5 0.49997,0.5l4.999999,0c0.27701,0 0.500031,-0.223021 0.500031,-0.5c0,-0.276979 -0.223021,-0.5 -0.500031,-0.5l-4.999999,0zm0,2c-0.27701,0 -0.49997,0.223021 -0.49997,0.5c0,0.276979 0.22296,0.5 0.49997,0.5l4.999999,0c0.27701,0 0.500031,-0.223021 0.500031,-0.5c0,-0.276979 -0.223021,-0.5 -0.500031,-0.5l-4.999999,0zm-1.49997,3.5l8,0c0.285641,0 0.499969,0.214479 0.499969,0.5l0,1c0,0.285641 -0.214329,0.5 -0.499969,0.5l-8,0c-0.28568,0 -0.50003,-0.214359 -0.50003,-0.5l0,-1c0,-0.285521 0.21435,-0.5 0.50003,-0.5zm0.84375,3l6.28125,0l-0.46875,1.5l-5.31253,0l-0.49997,-1.5z"/>
 </g>
</svg>